<svg xmlns="http://www.w3.org/2000/svg" width="36.061" height="36.061" viewBox="0 0 36.061 36.061"><defs><style>.a{fill:#fff;}</style></defs><g transform="translate(46.375 -1141.468)"><path class="a" d="M-27.308,1158.411l-.308-.1a10.413,10.413,0,0,1-1.273-.487c-.709-.333-1.365-.714-1.365-1.238,0-.428.553-.931,1.345-1.224a3.527,3.527,0,0,1,1.213-.186,6.478,6.478,0,0,1,2.876.675l.241.125.867-2.08-.213-.1a8.938,8.938,0,0,0-3.519-.775v-2.6h-1.8v2.742c-2.287.441-3.752,1.867-3.752,3.678,0,1.112.682,2.647,3.923,3.636l.154.046a11.029,11.029,0,0,1,1.128.4c1.227.52,1.75,1,1.75,1.6s-.688,1.164-1.716,1.424a4.858,4.858,0,0,1-1.236.138,7.928,7.928,0,0,1-3.392-.854l-.247-.132-.857,2.163.209.1a10,10,0,0,0,4.036.851v2.365h1.8V1166.1c2.62-.394,4.176-1.8,4.176-3.781C-23.268,1160.471-24.477,1159.3-27.308,1158.411Z"/><path class="a" d="M-28.345,1141.468a18.03,18.03,0,0,0-18.03,18.031,18.03,18.03,0,0,0,18.03,18.03,18.031,18.031,0,0,0,18.031-18.03A18.031,18.031,0,0,0-28.345,1141.468Zm0,33.061a15.047,15.047,0,0,1-15.03-15.03,15.047,15.047,0,0,1,15.03-15.031A15.048,15.048,0,0,1-13.314,1159.5,15.048,15.048,0,0,1-28.345,1174.529Z"/></g></svg>