<svg xmlns="http://www.w3.org/2000/svg" width="70.487" height="55.218" viewBox="0 0 70.487 55.218"><defs><style>.a{fill:#11c76f;}</style></defs><path class="a" d="M551.791-428.511a16.534,16.534,0,0,0,16.515-16.515,16.534,16.534,0,0,0-16.515-16.515,16.535,16.535,0,0,0-16.516,16.515A16.535,16.535,0,0,0,551.791-428.511Zm0-27.953a11.45,11.45,0,0,1,11.437,11.438,11.45,11.45,0,0,1-11.437,11.437,11.451,11.451,0,0,1-11.438-11.437A11.451,11.451,0,0,1,551.791-456.464Z" transform="translate(-526.949 461.542)"/><path class="a" d="M557.758-427.108H544.032a16.974,16.974,0,0,0-16.955,16.955v3.292h5.078v-3.292a11.89,11.89,0,0,1,11.877-11.877h13.726a11.891,11.891,0,0,1,11.878,11.877v3.292h5.078v-3.292A16.975,16.975,0,0,0,557.758-427.108Z" transform="translate(-527.077 462.078)"/><path class="a" d="M596.823-444.133h-8.568V-452.7h-5.078v8.569h-8.569v5.078h8.569v8.569h5.078v-8.569h8.568Z" transform="translate(-526.337 461.68)"/></svg>