<svg xmlns="http://www.w3.org/2000/svg" width="56.182" height="56.72" viewBox="0 0 56.182 56.72"><defs><style>.a{fill:none;stroke:#bbb;stroke-miterlimit:10;stroke-width:3px;}</style></defs><path class="a" d="M551.78,1144.7l-4.54-2.62a1.957,1.957,0,0,1-.98-1.85c.03-.41.04-.82.04-1.23,0-.52-.02-1.03-.07-1.53a1.965,1.965,0,0,1,.98-1.88l4.42-2.55a1.979,1.979,0,0,0,.72-2.71l-5.64-9.78a1.991,1.991,0,0,0-2.71-.73l-4.55,2.63a1.96,1.96,0,0,1-2.06-.05,20.8,20.8,0,0,0-2.47-1.42,1.926,1.926,0,0,1-1.09-1.76v-5.1a1.985,1.985,0,0,0-1.98-1.98h-11.3a1.987,1.987,0,0,0-1.99,1.98v5.23a1.953,1.953,0,0,1-1.06,1.75,19.549,19.549,0,0,0-2.45,1.46,1.971,1.971,0,0,1-2.09.07l-4.42-2.55a1.979,1.979,0,0,0-2.71.72l-5.65,9.79a1.991,1.991,0,0,0,.73,2.71l4.53,2.61a1.989,1.989,0,0,1,.99,1.86c-.03.41-.05.81-.05,1.23,0,.51.03,1.02.07,1.53a1.942,1.942,0,0,1-.98,1.87l-4.41,2.55a1.983,1.983,0,0,0-.73,2.71l5.65,9.79a1.979,1.979,0,0,0,2.71.72l4.54-2.62a1.977,1.977,0,0,1,2.07.05,19.318,19.318,0,0,0,2.46,1.41,1.961,1.961,0,0,1,1.1,1.77v5.09a1.98,1.98,0,0,0,1.98,1.99h11.3a1.987,1.987,0,0,0,1.98-1.99v-5.22a1.942,1.942,0,0,1,1.06-1.75,20.173,20.173,0,0,0,2.46-1.46,1.95,1.95,0,0,1,2.09-.07l4.41,2.55a1.982,1.982,0,0,0,2.71-.73l5.65-9.78A1.988,1.988,0,0,0,551.78,1144.7Zm-25.44,3.79a9.49,9.49,0,1,1,9.49-9.49A9.492,9.492,0,0,1,526.34,1148.49Z" transform="translate(-498.255 -1110.64)"/></svg>