<svg xmlns="http://www.w3.org/2000/svg" width="25" height="20" viewBox="0 0 53.297 46.436"><defs><style>.a{fill:#fff;}</style></defs><g transform="translate(0 0)"><path class="a" d="M747.479-990.56a60.814,60.814,0,0,0-10.746-10.188l5.19-9.141a1.446,1.446,0,0,0-.543-1.971,1.446,1.446,0,0,0-1.97.543l-5.089,8.964a27.228,27.228,0,0,0-11.7-4.164v-11.1a1.445,1.445,0,0,0-1.445-1.445,1.446,1.446,0,0,0-1.445,1.445v11.019a25.031,25.031,0,0,0-12.567,4.263l-5.1-8.984a1.446,1.446,0,0,0-1.97-.543,1.446,1.446,0,0,0-.543,1.971l5.242,9.232a55.3,55.3,0,0,0-9.96,10.145,1.445,1.445,0,0,0,.038,1.82c9.031,10.664,18.064,16.067,26.858,16.067q.225,0,.45,0c8.65-.181,17.177-5.6,25.343-16.11A1.446,1.446,0,0,0,747.479-990.56Zm-25.365,15.041c-7.8.158-15.944-4.594-24.272-14.145,7.372-9.179,14.9-13.911,22.391-14.068,7.8-.134,15.944,4.595,24.272,14.145C737.132-980.409,729.6-975.677,722.114-975.519Z" transform="translate(-694.524 1019.061)"/><circle class="a" cx="8.153" cy="8.153" r="8.153" transform="translate(18.496 20.732)"/></g></svg>