<svg xmlns="http://www.w3.org/2000/svg" width="30.65" height="56.06" viewBox="0 0 30.65 56.06"><defs><style>.a{fill:#fff;}</style></defs><path class="a" d="M109.992,1126.72c0,5.86-4.77,10.24-13.26,11.31v7.76H92.6v-7.5h-.11a31.37,31.37,0,0,1-13.15-2.63l2.12-5.35a25.964,25.964,0,0,0,11.14,2.8h.08a16.132,16.132,0,0,0,4.05-.46c3.42-.87,6.04-2.9,6.04-5.29,0-2.61-2.46-4.29-6.04-5.81a36.659,36.659,0,0,0-3.66-1.3c-.16-.05-.31-.09-.47-.14-8.09-2.47-11.91-6.25-11.91-10.79,0-5.3,4.4-9.79,11.91-11.01v-8.58h4.13v8.25h.11a27.425,27.425,0,0,1,11.51,2.39l-2.13,5.11a21.285,21.285,0,0,0-9.49-2.23h-.08a11.784,11.784,0,0,0-4.05.64c-2.46.91-4.79,2.66-4.79,4.63,0,2.1,2.22,3.44,4.79,4.65a34.9,34.9,0,0,0,4.13,1.58c.32.1.64.2.98.31C105.842,1117.62,109.992,1120.97,109.992,1126.72Z" transform="translate(-79.342 -1089.73)"/></svg>