<svg xmlns="http://www.w3.org/2000/svg" width="49.289" height="45.118" viewBox="0 0 49.289 45.118"><defs><style>.a{fill:#acb1bd;}</style></defs><path class="a" d="M354.965,484.226a1.516,1.516,0,0,1-1.508-1.682l.859-7.8h-3.146a8.821,8.821,0,0,1-8.811-8.81V447.919a8.822,8.822,0,0,1,8.811-8.811h31.666a8.822,8.822,0,0,1,8.811,8.811v18.018a8.821,8.821,0,0,1-8.811,8.81H367.8l-11.912,9.164A1.512,1.512,0,0,1,354.965,484.226Zm-3.8-42.085a5.785,5.785,0,0,0-5.778,5.778v18.018a5.784,5.784,0,0,0,5.778,5.777h4.838a1.517,1.517,0,0,1,1.508,1.682l-.654,5.94,9.5-7.307a1.515,1.515,0,0,1,.925-.315h15.548a5.784,5.784,0,0,0,5.778-5.777V447.919a5.785,5.785,0,0,0-5.778-5.778Z" transform="translate(-342.358 -439.108)"/></svg>