<svg xmlns="http://www.w3.org/2000/svg" width="43.512" height="40.051" viewBox="0 0 43.512 40.051"><defs><style>.a{fill:#acb1bd;}</style></defs><path class="a" d="M468,514.529a1.465,1.465,0,0,1-1.037-.43l-16.8-16.8A13.374,13.374,0,0,1,468,477.419,13.375,13.375,0,0,1,485.835,497.3l-16.8,16.8A1.465,1.465,0,0,1,468,514.529Zm-8.383-37.118a10.433,10.433,0,0,0-7.378,17.814L468,510.987l15.763-15.762a10.44,10.44,0,0,0-14.732-14.8,1.466,1.466,0,0,1-2.064,0A10.411,10.411,0,0,0,459.614,477.411Z" transform="translate(-446.242 -474.478)"/></svg>