<svg xmlns="http://www.w3.org/2000/svg" width="545.038" height="175.819" viewBox="0 0 545.038 175.819"><defs><style>.a{fill:#fff;}</style></defs><path class="a" d="M137.373,141.974h25.494V67.69H137.373ZM171.658,17.142H154.515V34.285h17.142ZM75.4,25.494H50.782V47.031H73.639c14.505,0,22.856,7.033,22.856,20.219S88.144,87.909,73.639,87.909H50.782V47.471H25.289v94.5H50.782V109.447H74.957c29.45,0,46.592-15.824,46.592-43.076,0-25.494-16.7-40.878-46.152-40.878ZM188.8,0H137.373V51.427H188.8Zm-8.351,42.636H146.164V8.351h34.285ZM329.894,25.494H306.6V47.031h21.977c14.505,0,22.856,7.033,22.856,20.219s-8.351,20.659-22.856,20.659H306.6V47.471H281.1v94.5H306.6V109.447h23.3c29.45,0,46.592-15.824,46.592-43.076,0-25.494-17.142-40.878-46.592-40.878ZM543.953,52.746l-21.977,55.383L500,52.746H473.626l35.164,89.228-13.626,33.845h26.812l48.35-123.073Zm-114.282-.44c-15.384,0-27.252,3.516-40.438,10.11L397.145,80c9.23-5.275,18.461-7.912,26.812-7.912,12.307,0,18.461,5.275,18.461,14.945v1.758H417.8c-21.977,0-33.845,10.11-33.845,26.812,0,16.263,11.428,27.691,30.768,27.691,12.307,0,21.1-4.4,28.131-11.868v9.67h25.054V83.074c-.879-18.9-14.505-30.768-38.241-30.768Zm14.945,59.778c-2.637,7.472-10.11,13.626-20.659,13.626-8.791,0-14.065-4.4-14.065-11.428s4.835-10.11,14.505-10.11h20.219Zm-216.7,10.549c-12.307,0-21.1-9.67-21.1-24.175,0-14.065,8.791-23.736,21.1-23.736,8.791,0,15.384,3.516,20.219,9.67l17.142-12.307c-7.912-11.868-21.538-18.9-38.68-18.9-26.812-.44-45.273,18.021-45.273,45.273s18.461,45.273,45.273,45.273c18.461,0,32.087-7.472,39.559-19.78l-17.582-11.868c-4.4,7.033-11.428,10.549-20.659,10.549Z" transform="translate(-25.289)"/></svg>