<svg xmlns="http://www.w3.org/2000/svg" width="40.32" height="26.28" viewBox="0 0 40.32 26.28"><defs><style>.a{fill:#bbb;}</style></defs><g transform="translate(0 0)"><path class="a" d="M-350.861,462.507a12.33,12.33,0,0,0,3.126-7.36c0-3.773-3.6-7.617-7.126-7.617s-7.126,3.844-7.126,7.617a12.325,12.325,0,0,0,3.127,7.36c-5.065,1.51-8.893,5.754-8.893,10.233v1.071h25.786v-1.071C-341.968,468.26-345.8,464.016-350.861,462.507Zm-4-13.015c2.462,0,5.165,2.96,5.165,5.655,0,2.915-2.82,7.555-5.165,7.555s-5.165-4.64-5.165-7.555C-360.026,452.452-357.323,449.492-354.862,449.492Zm-10.651,22.178c.65-3.532,4.412-6.772,8.84-7.46a4.157,4.157,0,0,0,1.812.454,4.164,4.164,0,0,0,1.813-.454c4.426.687,8.189,3.927,8.839,7.46Z" transform="translate(382.288 -447.53)"/><path class="a" d="M-373.036,463.513a3.6,3.6,0,0,0,1.559.389,3.573,3.573,0,0,0,1.547-.384,10.233,10.233,0,0,1,2.59.74l.743-1.688a12.106,12.106,0,0,0-1.439-.522,10.616,10.616,0,0,0,2.692-6.337c0-3.248-3.1-6.556-6.134-6.556s-6.134,3.308-6.134,6.556a10.61,10.61,0,0,0,2.691,6.335c-4.36,1.3-7.654,4.953-7.654,8.807v.923h11.1v-1.845h-9.167C-380.084,466.893-376.845,464.1-373.036,463.513Zm1.559-12.669c2.119,0,4.445,2.548,4.445,4.868,0,2.508-2.427,6.5-4.445,6.5s-4.445-4-4.445-6.5C-375.921,453.392-373.595,450.844-371.476,450.844Z" transform="translate(382.573 -447.561)"/></g></svg>