<svg xmlns="http://www.w3.org/2000/svg" width="70.719" height="70.719" viewBox="0 0 70.719 70.719"><defs><style>.a{fill:#11c76f;}</style></defs><g transform="translate(0 0)"><path class="a" d="M-342.28-418.077a2.544,2.544,0,0,0-2.544,2.544v12.21h-12.211a2.544,2.544,0,0,0-2.544,2.544,2.544,2.544,0,0,0,2.544,2.544h14.754a2.543,2.543,0,0,0,2.544-2.544v-14.754A2.543,2.543,0,0,0-342.28-418.077Z" transform="translate(410.455 468.954)"/><path class="a" d="M-392.28-403.323H-404.49v-12.21a2.543,2.543,0,0,0-2.544-2.544,2.544,2.544,0,0,0-2.544,2.544v14.754a2.544,2.544,0,0,0,2.544,2.544h14.754a2.544,2.544,0,0,0,2.544-2.544A2.543,2.543,0,0,0-392.28-403.323Z" transform="translate(409.578 468.954)"/><path class="a" d="M-407.034-448.235a2.543,2.543,0,0,0,2.544-2.544v-12.211h12.211a2.544,2.544,0,0,0,2.544-2.544,2.544,2.544,0,0,0-2.544-2.544h-14.754a2.544,2.544,0,0,0-2.544,2.544v14.755A2.544,2.544,0,0,0-407.034-448.235Z" transform="translate(409.578 468.077)"/><path class="a" d="M-342.28-468.077h-14.754a2.544,2.544,0,0,0-2.544,2.544,2.544,2.544,0,0,0,2.544,2.544h12.211v12.211a2.544,2.544,0,0,0,2.544,2.544,2.543,2.543,0,0,0,2.544-2.544v-14.755A2.543,2.543,0,0,0-342.28-468.077Z" transform="translate(410.455 468.077)"/><path class="a" d="M-374.784-430.387h20.415a2.543,2.543,0,0,0,2.544-2.544v-20.415a2.543,2.543,0,0,0-2.544-2.544h-20.415a2.544,2.544,0,0,0-2.544,2.544v20.415A2.544,2.544,0,0,0-374.784-430.387Zm2.544-20.415h15.327v15.327H-372.24Z" transform="translate(410.144 468.291)"/><path class="a" d="M-384.283-450.419a2.908,2.908,0,0,0,1.456-.39,2.908,2.908,0,0,0,1.361-1.775,2.907,2.907,0,0,0-.292-2.217h0a2.924,2.924,0,0,0-3.99-1.068,2.923,2.923,0,0,0-1.069,3.991A2.921,2.921,0,0,0-384.283-450.419Zm.119-2.706a.247.247,0,0,1-.338-.091l.429-.247A.249.249,0,0,1-384.164-453.125Zm-.247-.429a.245.245,0,0,1,.123-.033.249.249,0,0,1,.215.123l-.428.248A.248.248,0,0,1-384.411-453.554Z" transform="translate(409.97 468.284)"/><path class="a" d="M-363.187-446.13a2.9,2.9,0,0,0-2.217.292,2.9,2.9,0,0,0-1.361,1.773,2.907,2.907,0,0,0,.292,2.217,2.923,2.923,0,0,0,2.535,1.46,2.906,2.906,0,0,0,1.456-.391,2.924,2.924,0,0,0,1.069-3.991A2.9,2.9,0,0,0-363.187-446.13Zm-.633,3.036a.249.249,0,0,1-.338-.091.248.248,0,0,1,.091-.338.245.245,0,0,1,.123-.034.248.248,0,0,1,.215.124A.247.247,0,0,1-363.819-443.094Z" transform="translate(410.327 468.46)"/><path class="a" d="M-381.757-444.769h0a2.924,2.924,0,0,0-3.99-1.068,2.923,2.923,0,0,0-1.069,3.991,2.922,2.922,0,0,0,2.535,1.46,2.907,2.907,0,0,0,1.456-.391,2.9,2.9,0,0,0,1.361-1.775A2.905,2.905,0,0,0-381.757-444.769Zm-2.654,1.245a.246.246,0,0,1,.123-.032.248.248,0,0,1,.215.124l-.428.247A.249.249,0,0,1-384.411-443.523Zm.247.43a.248.248,0,0,1-.338-.09l.429-.248A.249.249,0,0,1-384.164-443.094Z" transform="translate(409.97 468.46)"/><path class="a" d="M-361.413-425.329a2.9,2.9,0,0,0-1.774-1.36,2.9,2.9,0,0,0-2.217.291,2.907,2.907,0,0,0-1.361,1.775,2.908,2.908,0,0,0,.292,2.217,2.923,2.923,0,0,0,2.535,1.46,2.9,2.9,0,0,0,1.456-.392A2.924,2.924,0,0,0-361.413-425.329Zm-2.406,1.675a.247.247,0,0,1-.338-.09.249.249,0,0,1,.091-.339.245.245,0,0,1,.123-.034.248.248,0,0,1,.215.124A.246.246,0,0,1-363.819-423.654Z" transform="translate(410.327 468.801)"/><path class="a" d="M-353.959-426.689a2.9,2.9,0,0,0-2.217.291,2.925,2.925,0,0,0-1.068,3.992,2.921,2.921,0,0,0,2.535,1.459,2.9,2.9,0,0,0,1.455-.391,2.9,2.9,0,0,0,1.361-1.774,2.9,2.9,0,0,0-.292-2.217A2.9,2.9,0,0,0-353.959-426.689Zm-.633,3.035a.247.247,0,0,1-.338-.09.249.249,0,0,1,.091-.339.246.246,0,0,1,.123-.034.248.248,0,0,1,.215.124A.246.246,0,0,1-354.591-423.654Z" transform="translate(410.489 468.801)"/><path class="a" d="M-391.81-453.346a2.544,2.544,0,0,0-2.544-2.544,2.544,2.544,0,0,0-2.544,2.544v10.613a2.544,2.544,0,0,0,2.544,2.544,2.544,2.544,0,0,0,2.544-2.544V-445.5h2.608a2.544,2.544,0,0,0,2.544-2.544,2.544,2.544,0,0,0-2.544-2.544h-2.608Z" transform="translate(409.801 468.291)"/><path class="a" d="M-389.2-425.787a2.544,2.544,0,0,0,2.544-2.544v-2.429h2.541a2.543,2.543,0,0,0,2.544-2.544,2.544,2.544,0,0,0-2.544-2.544h-2.541v-2.428a2.544,2.544,0,0,0-2.544-2.544,2.543,2.543,0,0,0-2.544,2.544v2.428h-2.608A2.544,2.544,0,0,0-396.9-433.3a2.543,2.543,0,0,0,2.544,2.544h2.608v2.429A2.544,2.544,0,0,0-389.2-425.787Z" transform="translate(409.801 468.555)"/><path class="a" d="M-391.818-424.918a2.924,2.924,0,0,0-3.99-1.069,2.9,2.9,0,0,0-1.362,1.774,2.9,2.9,0,0,0,.292,2.217,2.922,2.922,0,0,0,2.535,1.459,2.9,2.9,0,0,0,1.456-.391,2.9,2.9,0,0,0,1.36-1.774A2.9,2.9,0,0,0-391.818-424.918Zm-2.405,1.676a.248.248,0,0,1-.338-.091.252.252,0,0,1-.025-.188.252.252,0,0,1,.116-.151.248.248,0,0,1,.338.091A.249.249,0,0,1-394.224-423.242Z" transform="translate(409.794 468.808)"/><path class="a" d="M-395.808-416.5a2.9,2.9,0,0,0-1.362,1.775,2.9,2.9,0,0,0,.292,2.217,2.924,2.924,0,0,0,2.535,1.459,2.9,2.9,0,0,0,1.456-.391,2.9,2.9,0,0,0,1.36-1.774,2.9,2.9,0,0,0-.292-2.218,2.9,2.9,0,0,0-1.773-1.359A2.9,2.9,0,0,0-395.808-416.5Zm1.584,2.744a.246.246,0,0,1-.338-.089.252.252,0,0,1-.025-.188.252.252,0,0,1,.116-.151.248.248,0,0,1,.338.091A.247.247,0,0,1-394.224-413.756Z" transform="translate(409.794 468.975)"/><path class="a" d="M-386.756-420.641a2.927,2.927,0,0,0-3.99-1.069,2.906,2.906,0,0,0-1.362,1.775,2.907,2.907,0,0,0,.292,2.217,2.923,2.923,0,0,0,2.535,1.46,2.916,2.916,0,0,0,1.457-.391,2.9,2.9,0,0,0,1.36-1.775A2.9,2.9,0,0,0-386.756-420.641Zm-2.4,1.676a.248.248,0,0,1-.339-.091.246.246,0,0,1-.025-.187.251.251,0,0,1,.115-.152.25.25,0,0,1,.338.09.254.254,0,0,1,.025.188A.256.256,0,0,1-389.161-418.965Z" transform="translate(409.883 468.884)"/><path class="a" d="M-369.2-421.648a2.544,2.544,0,0,0-2.544,2.544v2.757h-5.165V-419.1a2.532,2.532,0,0,0-1.337-2.226h3.632a2.544,2.544,0,0,0,2.544-2.544,2.544,2.544,0,0,0-2.544-2.544h-9.677a2.544,2.544,0,0,0-2.544,2.544,2.544,2.544,0,0,0,2.544,2.544h3.633A2.533,2.533,0,0,0-382-419.1v2.757h-2.295a2.544,2.544,0,0,0-2.544,2.544,2.543,2.543,0,0,0,2.544,2.544H-369.2a2.543,2.543,0,0,0,2.544-2.544v-5.3A2.544,2.544,0,0,0-369.2-421.648Z" transform="translate(409.977 468.808)"/><path class="a" d="M-354.64-411.342a2.543,2.543,0,0,0,2.544-2.544,2.544,2.544,0,0,0-2.544-2.544h-2.154v-2.757a2.543,2.543,0,0,0-2.544-2.544,2.543,2.543,0,0,0-2.544,2.544v5.3a2.543,2.543,0,0,0,2.544,2.544Z" transform="translate(410.415 468.89)"/></g></svg>